<?xml version="1.0" standalone="no"?>
<!DOCTYPE svg PUBLIC "-//W3C//DTD SVG 20010904//EN"
 "http://www.w3.org/TR/2001/REC-SVG-20010904/DTD/svg10.dtd">
<svg version="1.0" xmlns="http://www.w3.org/2000/svg"
 width="261.000000pt" height="189.000000pt" viewBox="0 0 261.000000 189.000000"
 preserveAspectRatio="xMidYMid meet">

<g transform="translate(0.000000,189.000000) scale(0.100000,-0.100000)"
fill="#000000" stroke="none">
<path d="M2513 1453 c9 -16 23 -44 32 -63 12 -26 15 -29 11 -9 -9 42 -36 99
-47 99 -6 0 -4 -11 4 -27z"/>
<path d="M909 1361 c-48 -15 -71 -33 -85 -67 -12 -29 -12 -39 0 -68 8 -19 24
-39 35 -45 30 -17 104 -24 155 -17 l46 7 0 55 0 54 -50 0 c-43 0 -50 -3 -50
-20 0 -12 7 -20 16 -20 25 0 12 -35 -14 -38 -31 -5 -72 23 -72 49 0 52 57 86
124 73 31 -5 36 -4 36 14 0 29 -78 42 -141 23z"/>
<path d="M1163 1312 l-53 -3 0 -38 c0 -21 -3 -53 -6 -70 -6 -30 -6 -31 30 -31
35 0 36 1 36 38 0 41 14 62 42 62 11 0 18 7 18 19 0 25 -4 27 -67 23z"/>
<path d="M1540 1312 l-35 -7 -6 -100 c-3 -55 -6 -101 -5 -102 0 0 15 -3 31 -5
28 -3 30 -1 33 35 l3 39 39 -7 c38 -6 77 6 92 29 14 21 8 83 -9 99 -21 18 -94
28 -143 19z m81 -42 c21 -12 25 -40 7 -58 -32 -32 -80 8 -58 48 12 23 23 25
51 10z"/>
<path d="M1790 1307 c-42 -15 -66 -53 -56 -91 14 -57 131 -73 182 -25 69 65
-25 151 -126 116z m74 -50 c15 -24 -4 -52 -35 -52 -31 0 -40 42 -13 62 21 16
34 13 48 -10z"/>
<path d="M1266 1279 c-12 -60 -7 -98 13 -109 12 -6 50 -7 95 -3 70 5 76 8 76
28 0 12 3 43 6 69 l7 46 -37 0 c-34 0 -36 -2 -36 -34 0 -50 -9 -66 -36 -66
-22 0 -24 4 -24 50 0 48 -1 50 -29 50 -24 0 -29 -5 -35 -31z"/>
<path d="M454 1067 c-3 -8 -4 -32 -2 -53 l3 -38 60 2 c33 1 66 -1 72 -6 9 -5
13 -54 15 -161 l3 -153 63 -2 62 -1 0 157 c0 179 -4 172 93 167 l52 -3 0 47 0
46 -208 6 c-175 5 -208 4 -213 -8z"/>
<path d="M1013 1061 c-87 -40 -97 -142 -19 -191 17 -10 63 -26 101 -36 39 -9
78 -24 88 -32 37 -32 10 -72 -48 -72 -37 0 -64 17 -75 46 -10 24 -12 25 -72
18 -35 -4 -65 -8 -66 -10 -7 -5 30 -72 51 -92 48 -44 198 -57 273 -23 59 27
84 63 84 123 0 70 -32 99 -142 127 -110 29 -108 28 -115 47 -8 21 21 44 54 44
13 0 34 -11 47 -25 20 -21 32 -25 85 -25 66 0 70 4 45 51 -23 45 -83 69 -174
69 -52 0 -88 -6 -117 -19z"/>
<path d="M1414 1071 c-5 -6 -5 -406 0 -412 2 -2 27 -2 55 -1 l51 4 0 139 c0
137 10 174 28 107 5 -18 22 -81 38 -140 l28 -108 52 0 52 0 31 118 c35 127 49
168 57 159 3 -3 6 -67 7 -143 l2 -139 50 1 50 1 0 208 0 207 -84 0 c-45 0 -86
-4 -91 -9 -4 -4 -20 -57 -35 -116 -16 -59 -33 -106 -39 -104 -5 2 -23 52 -39
113 -17 60 -31 110 -33 112 -3 5 -175 8 -180 3z"/>
</g>
</svg>
